<svg xmlns="http://www.w3.org/2000/svg" xmlns:xlink="http://www.w3.org/1999/xlink" xml:space="preserve" version="1.1" style="shape-rendering:geometricPrecision;text-rendering:geometricPrecision;image-rendering:optimizeQuality;" viewBox="0 0 176 267.5" x="0px" y="0px" fill-rule="evenodd" clip-rule="evenodd"><defs><style type="text/css">
   
    .fil0 {fill:black;fill-rule:nonzero}
   
  </style></defs><g><path class="fil0" d="M30 13c32,-23 76,-15 98,17 20,29 16,68 -9,92l39 56 -16 12 -40 -57c-31,16 -69,6 -89,-22 -23,-32 -15,-76 17,-98zm131 169l15 21 -17 11 -15 -21 17 -11zm-121 -156c-25,17 -31,51 -14,75 17,25 51,30 75,13 25,-17 30,-50 13,-74 -17,-25 -50,-31 -74,-14z"/></g><text x="0" y="229" fill="#000000" font-size="5px" font-weight="bold" font-family="'Helvetica Neue', Helvetica, Arial-Unicode, Arial, Sans-serif">Created by ayex</text><text x="0" y="234" fill="#000000" font-size="5px" font-weight="bold" font-family="'Helvetica Neue', Helvetica, Arial-Unicode, Arial, Sans-serif">from the Noun Project</text></svg>